<svg width="223" height="50" viewBox="0 0 223 50" fill="none" xmlns="http://www.w3.org/2000/svg">
<path d="M28.125 7.6875V15.1875M16.875 7.6875V15.1875M38.4049 24.5625H6.59499M38.4049 24.5625C38.0143 13.8614 34.0387 10.5 22.5 10.5C10.9612 10.5 6.9855 13.8614 6.59499 24.5625M38.4049 24.5625C38.4268 25.164 38.4375 25.7888 38.4375 26.4375C38.4375 38.625 34.6875 42.375 22.5 42.375C10.3125 42.375 6.5625 38.625 6.5625 26.4375C6.5625 25.7888 6.57306 25.164 6.59499 24.5625" stroke="#DC2626" stroke-width="3" stroke-linecap="round" stroke-linejoin="round"/>
<path d="M52 40L62.84 12H67.24L78 40H73.4L67 23.12C66.92 22.9333 66.76 22.48 66.52 21.76C66.3067 21.04 66.0533 20.24 65.76 19.36C65.4667 18.48 65.2 17.68 64.96 16.96C64.72 16.2133 64.56 15.7333 64.48 15.52L65.4 15.48C65.24 15.9333 65.04 16.5067 64.8 17.2C64.5867 17.8933 64.3467 18.6267 64.08 19.4C63.84 20.1733 63.6 20.9067 63.36 21.6C63.12 22.2667 62.92 22.8267 62.76 23.28L56.4 40H52ZM56.8 33.04L58.4 28.88H71.12L72.96 33.04H56.8ZM94.6666 40.4C92.6399 40.4 90.7466 40.04 88.9866 39.32C87.2266 38.5733 85.6799 37.5467 84.3466 36.24C83.0132 34.9333 81.9732 33.4133 81.2266 31.68C80.5066 29.92 80.1466 28.0267 80.1466 26C80.1466 24 80.5066 22.1333 81.2266 20.4C81.9732 18.6667 82.9999 17.16 84.3066 15.88C85.6399 14.5733 87.1866 13.56 88.9466 12.84C90.7066 12.12 92.5999 11.76 94.6266 11.76C96.0399 11.76 97.4132 11.96 98.7466 12.36C100.107 12.76 101.333 13.32 102.427 14.04C103.52 14.76 104.413 15.5867 105.107 16.52L102.307 19.44C101.507 18.6667 100.68 18.0267 99.8266 17.52C98.9999 17.0133 98.1466 16.6267 97.2666 16.36C96.3866 16.0933 95.5066 15.96 94.6266 15.96C93.1866 15.96 91.8532 16.2133 90.6266 16.72C89.4266 17.2267 88.3599 17.9333 87.4266 18.84C86.5199 19.7467 85.8132 20.8133 85.3066 22.04C84.7999 23.24 84.5466 24.56 84.5466 26C84.5466 27.3867 84.8132 28.7067 85.3466 29.96C85.8799 31.1867 86.6132 32.2667 87.5466 33.2C88.5066 34.1333 89.5999 34.8667 90.8266 35.4C92.0799 35.9333 93.3999 36.2 94.7866 36.2C95.8266 36.2 96.8132 36.0533 97.7466 35.76C98.6799 35.44 99.5066 35 100.227 34.44C100.947 33.88 101.507 33.24 101.907 32.52C102.307 31.7733 102.507 30.9867 102.507 30.16V29.36L103.107 29.92H94.5466V25.64H106.947C107 25.9333 107.04 26.2267 107.067 26.52C107.093 26.7867 107.107 27.0533 107.107 27.32C107.133 27.56 107.147 27.8 107.147 28.04C107.147 29.88 106.827 31.56 106.187 33.08C105.547 34.5733 104.653 35.8667 103.507 36.96C102.387 38.0533 101.067 38.9067 99.5466 39.52C98.0532 40.1067 96.4266 40.4 94.6666 40.4ZM112.772 40V12H130.412V16.16H117.092V35.84H130.412V40H112.772ZM114.732 27.72V23.56H128.212V27.72H114.732ZM137.342 40V12H141.222L158.342 34.92L157.702 35.28C157.595 34.6133 157.502 33.8933 157.422 33.12C157.342 32.32 157.262 31.48 157.182 30.6C157.129 29.6933 157.075 28.7467 157.022 27.76C156.995 26.7467 156.969 25.6933 156.942 24.6C156.915 23.5067 156.902 22.3733 156.902 21.2V12H161.222V40H157.262L140.422 17.92L140.862 17.36C140.995 18.9867 141.102 20.3733 141.182 21.52C141.289 22.64 141.369 23.6 141.422 24.4C141.502 25.1733 141.555 25.8133 141.582 26.32C141.609 26.8 141.622 27.2 141.622 27.52C141.649 27.84 141.662 28.12 141.662 28.36V40H137.342ZM169.061 40V12H180.021C182.021 12 183.821 12.3333 185.421 13C187.047 13.6667 188.434 14.6267 189.581 15.88C190.727 17.1333 191.607 18.6133 192.221 20.32C192.834 22.0267 193.141 23.92 193.141 26C193.141 28.08 192.834 29.9867 192.221 31.72C191.607 33.4267 190.727 34.9067 189.581 36.16C188.461 37.3867 187.087 38.3333 185.461 39C183.834 39.6667 182.021 40 180.021 40H169.061ZM173.381 36.28L173.261 35.84H179.821C181.234 35.84 182.487 35.6133 183.581 35.16C184.701 34.7067 185.634 34.0667 186.381 33.24C187.154 32.3867 187.741 31.3467 188.141 30.12C188.541 28.8933 188.741 27.52 188.741 26C188.741 24.48 188.541 23.12 188.141 21.92C187.741 20.6933 187.154 19.6533 186.381 18.8C185.607 17.9467 184.674 17.2933 183.581 16.84C182.487 16.3867 181.234 16.16 179.821 16.16H173.141L173.381 15.8V36.28ZM195.281 40L206.121 12H210.521L221.281 40H216.681L210.281 23.12C210.201 22.9333 210.041 22.48 209.801 21.76C209.588 21.04 209.335 20.24 209.041 19.36C208.748 18.48 208.481 17.68 208.241 16.96C208.001 16.2133 207.841 15.7333 207.761 15.52L208.681 15.48C208.521 15.9333 208.321 16.5067 208.081 17.2C207.868 17.8933 207.628 18.6267 207.361 19.4C207.121 20.1733 206.881 20.9067 206.641 21.6C206.401 22.2667 206.201 22.8267 206.041 23.28L199.681 40H195.281ZM200.081 33.04L201.681 28.88H214.401L216.241 33.04H200.081Z" fill="#F5F5F5"/>
</svg>
